<svg id="Layer_1" data-name="Layer 1" xmlns="http://www.w3.org/2000/svg" viewBox="0 0 289.65 407.76"><defs><style>.cls-1{fill:none;}.cls-2{fill:#39b54a;}</style></defs><g id="Layer_3" data-name="Layer 3"><path class="cls-1" d="M242.28,91.09C192,94.86,151.91,136.56,150,187a100.38,100.38,0,0,0,3.7,31.4c12.75,48.85,35.84,69.18,61.35,82.82a1.19,1.19,0,0,0,1.5-1.79,212.39,212.39,0,0,1-13.47-20C167.39,218.63,185.56,165.76,272.81,123a2.19,2.19,0,0,1,2.91,3c-20.62,43.07,54,96.55-18.11,161.93a4.64,4.64,0,0,1-7.47-1.84c-7.68-20.65-7.86-54.23-3.62-95.43a.66.66,0,0,0-1.23-.4c-14.94,30.5-15.55,64.37-9.19,99.89q2,11.37,5,23a4.23,4.23,0,0,0,7.07,1.94,229.88,229.88,0,0,1,44.07-33.34.15.15,0,0,1,.08,0,100.15,100.15,0,0,0-50-190.62Z" transform="translate(-105.18 -46.12)"/><path class="cls-1" d="M242.28,91.09C192,94.86,151.91,136.56,150,187a100.38,100.38,0,0,0,3.7,31.4c12.75,48.85,35.84,69.18,61.35,82.82a1.19,1.19,0,0,0,1.5-1.79,212.39,212.39,0,0,1-13.47-20C167.39,218.63,185.56,165.76,272.81,123a2.19,2.19,0,0,1,2.91,3c-20.62,43.07,54,96.55-18.11,161.93a4.64,4.64,0,0,1-7.47-1.84c-7.68-20.65-7.86-54.23-3.62-95.43a.66.66,0,0,0-1.23-.4c-14.94,30.5-15.55,64.37-9.19,99.89q2,11.37,5,23a4.23,4.23,0,0,0,7.07,1.94,229.88,229.88,0,0,1,44.07-33.34.15.15,0,0,1,.08,0,100.15,100.15,0,0,0-50-190.62Z" transform="translate(-105.18 -46.12)"/><path class="cls-2" d="M250,46.12A144.81,144.81,0,0,0,105.18,190.94c0,61.21,84.87,200.61,124.67,253a25.36,25.36,0,0,0,40.3,0c39.8-52.34,124.67-191.74,124.67-253A144.84,144.84,0,0,0,250,46.12Zm34.27,242.09a.11.11,0,0,0-.07,0c-1.29.75-34.2,25.05-36,26.83a4.26,4.26,0,0,1-7.08-1.94q-2.91-11.59-5-23c-6.36-35.52-5.72-69.39,9.19-99.89a.66.66,0,0,1,1.22.4c-4.24,41.2-4.06,74.78,3.63,95.43a4.63,4.63,0,0,0,7.47,1.84C329.78,222.51,255.14,169,275.75,126a2.19,2.19,0,0,0-2.91-3c-87.24,42.78-105.42,95.65-69.75,156.43a208.57,208.57,0,0,0,13.47,20,1.2,1.2,0,0,1-1.51,1.79c-25.5-13.64-48.6-33.94-61.35-82.82A100.68,100.68,0,0,1,150,187c1.94-50.39,42-92.09,92.31-95.86a100.17,100.17,0,0,1,107.87,99.85C350.1,231.13,311.17,266.94,284.27,288.21Z" transform="translate(-105.18 -46.12)"/><path class="cls-1" d="M153.67,218.35c-.29-1-.58-2.09-.83-3.16" transform="translate(-105.18 -46.12)"/><path class="cls-1" d="M252.3,292.55" transform="translate(-105.18 -46.12)"/><path class="cls-1" d="M254.17,290.94" transform="translate(-105.18 -46.12)"/></g></svg>